<svg xmlns="http://www.w3.org/2000/svg" xmlns:xlink="http://www.w3.org/1999/xlink" width="668" zoomAndPan="magnify" viewBox="0 0 501 195.000001" height="260" preserveAspectRatio="xMidYMid meet" version="1.0"><defs><g/></defs><g fill="#86a789" fill-opacity="1"><g transform="translate(98.243587, 129.478919)"><g><path d="M 43.28125 0.960938 C 59.730469 0.960938 69.542969 -9.617188 64.925781 -20.582031 L 64.636719 -20.582031 C 61.558594 -15.964844 55.882812 -12.503906 48.667969 -12.503906 C 30.105469 -12.503906 12.503906 -33.664062 12.503906 -62.230469 C 12.503906 -80.21875 22.027344 -92.625 27.894531 -92.625 C 38.667969 -92.625 53.382812 -89.453125 63.386719 -73.871094 L 63.675781 -73.871094 L 63.675781 -96.183594 L 23.085938 -96.183594 C 10.003906 -86.375 3.847656 -68.386719 3.847656 -50.015625 C 3.847656 -24.71875 18.949219 0.960938 43.28125 0.960938 Z M 43.28125 0.960938 "/></g></g></g><g fill="#86a789" fill-opacity="1"><g transform="translate(162.201214, 129.478919)"><g><path d="M 10.097656 0 L 10.097656 -11.542969 C 10.097656 -20.96875 18.949219 -49.726562 38.859375 -49.726562 C 47.996094 -49.726562 50.402344 -41.457031 50.402344 -34.335938 C 50.402344 -28.46875 50.207031 -12.695312 38.859375 -0.289062 L 38.859375 0 L 54.730469 0 L 54.730469 -29.238281 C 54.730469 -45.589844 57.230469 -65.210938 42.417969 -65.210938 C 27.316406 -65.210938 14.621094 -44.535156 10.097656 -31.066406 C 10.097656 -54.632812 15.390625 -75.503906 25.777344 -95.894531 L 25.777344 -96.183594 L 5.769531 -96.183594 L 5.769531 0 Z M 10.097656 0 "/></g></g></g><g fill="#86a789" fill-opacity="1"><g transform="translate(217.887584, 129.478919)"><g><path d="M 2.886719 0 L 22.988281 0 L 22.988281 -0.289062 C 16.929688 -8.753906 15.101562 -20.101562 15.101562 -32.125 C 15.101562 -44.148438 16.929688 -55.5 22.988281 -63.960938 L 22.988281 -64.25 L 2.886719 -64.25 L 2.886719 -63.960938 C 8.945312 -55.5 10.773438 -44.148438 10.773438 -32.125 C 10.773438 -20.101562 8.945312 -8.753906 2.886719 -0.289062 Z M 13.082031 -69.347656 C 19.140625 -69.347656 24.140625 -74.253906 24.140625 -80.410156 C 24.140625 -86.46875 19.140625 -91.472656 13.082031 -91.472656 C 6.925781 -91.472656 1.921875 -86.46875 1.921875 -80.410156 C 1.921875 -74.253906 6.925781 -69.347656 13.082031 -69.347656 Z M 13.082031 -69.347656 "/></g></g></g><g fill="#86a789" fill-opacity="1"><g transform="translate(238.757717, 129.478919)"><g><path d="M 22.988281 0 L 22.988281 -0.289062 C 16.929688 -8.753906 15.101562 -20.101562 15.101562 -32.125 L 15.101562 -35.589844 C 15.101562 -45.015625 24.335938 -51.554688 35.300781 -51.554688 C 41.457031 -51.554688 47.515625 -48.863281 49.632812 -44.246094 L 49.917969 -44.246094 L 49.917969 -64.25 C 47.035156 -64.925781 44.726562 -65.210938 41.457031 -65.210938 C 29.433594 -65.210938 19.238281 -56.941406 15.101562 -45.589844 L 15.101562 -64.347656 L 2.886719 -64.25 L 2.886719 -63.960938 C 8.945312 -55.5 10.773438 -44.148438 10.773438 -32.125 C 10.773438 -20.101562 8.945312 -8.753906 2.886719 -0.289062 L 2.886719 0 Z M 22.988281 0 "/></g></g></g><g fill="#86a789" fill-opacity="1"><g transform="translate(286.557534, 129.478919)"><g><path d="M 5.769531 -64.25 L 5.769531 31.933594 L 25.777344 31.933594 L 25.777344 31.644531 C 15.679688 21.160156 10.867188 6.539062 10.195312 -7.695312 C 14.425781 -2.308594 21.546875 0.960938 29.625 0.960938 C 48.957031 0.960938 61.847656 -15.871094 61.847656 -35.300781 C 61.847656 -49.535156 52.996094 -64.25 35.394531 -64.25 Z M 10.097656 -17.21875 L 10.097656 -20.292969 C 10.097656 -35.300781 16.0625 -60.789062 35.203125 -60.789062 C 42.609375 -60.789062 48.1875 -54.632812 48.1875 -45.496094 C 48.1875 -23.949219 34.144531 -5.386719 21.929688 -5.386719 C 13.464844 -5.386719 10.097656 -13.65625 10.097656 -17.21875 Z M 10.097656 -17.21875 "/></g></g></g><g fill="#86a789" fill-opacity="1"><g transform="translate(347.245118, 129.478919)"><g><path d="M 18.082031 0.960938 C 20.679688 0.960938 23.277344 0.191406 25.875 -1.152344 C 20.101562 4.90625 13.945312 12.503906 13.945312 21.257812 C 13.945312 25.199219 15.003906 29.625 17.023438 32.316406 L 32.992188 32.316406 L 32.992188 32.03125 C 29.144531 28.664062 26.355469 22.121094 26.355469 14.140625 C 26.355469 5.964844 27.796875 -1.636719 32.796875 -6.253906 C 42.320312 -15.003906 51.652344 -31.933594 51.652344 -45.015625 C 51.652344 -59.25 46.554688 -64.25 46.554688 -64.25 L 31.933594 -64.25 L 31.933594 -63.960938 C 31.933594 -63.960938 44.726562 -54.34375 44.726562 -39.433594 C 44.726562 -30.007812 41.167969 -14.523438 21.640625 -14.523438 C 12.503906 -14.523438 10.097656 -22.796875 10.097656 -29.914062 C 10.097656 -35.78125 11.734375 -51.554688 23.085938 -63.960938 L 23.085938 -64.25 L 5.769531 -64.25 L 5.769531 -35.011719 C 5.769531 -18.660156 4.425781 0.960938 18.082031 0.960938 Z M 18.082031 0.960938 "/></g></g></g><g fill="#222222" fill-opacity="1"><g transform="translate(191.331111, 152.464752)"><g><path d="M 7.171875 -2.734375 C 7.109375 -1.847656 6.78125 -1.148438 6.1875 -0.640625 C 5.601562 -0.140625 4.832031 0.109375 3.875 0.109375 C 2.820312 0.109375 1.992188 -0.242188 1.390625 -0.953125 C 0.785156 -1.660156 0.484375 -2.632812 0.484375 -3.875 L 0.484375 -4.375 C 0.484375 -5.15625 0.617188 -5.847656 0.890625 -6.453125 C 1.171875 -7.054688 1.570312 -7.519531 2.09375 -7.84375 C 2.613281 -8.164062 3.210938 -8.328125 3.890625 -8.328125 C 4.835938 -8.328125 5.597656 -8.070312 6.171875 -7.5625 C 6.753906 -7.050781 7.09375 -6.335938 7.1875 -5.421875 L 5.5 -5.421875 C 5.457031 -5.953125 5.304688 -6.335938 5.046875 -6.578125 C 4.796875 -6.816406 4.410156 -6.9375 3.890625 -6.9375 C 3.328125 -6.9375 2.90625 -6.734375 2.625 -6.328125 C 2.34375 -5.921875 2.203125 -5.296875 2.203125 -4.453125 L 2.203125 -3.828125 C 2.203125 -2.941406 2.332031 -2.289062 2.59375 -1.875 C 2.863281 -1.46875 3.289062 -1.265625 3.875 -1.265625 C 4.394531 -1.265625 4.78125 -1.382812 5.03125 -1.625 C 5.289062 -1.863281 5.441406 -2.234375 5.484375 -2.734375 Z M 7.171875 -2.734375 "/></g></g></g><g fill="#222222" fill-opacity="1"><g transform="translate(200.064194, 152.464752)"><g><path d="M 7.46875 -3.921875 C 7.46875 -3.109375 7.328125 -2.394531 7.046875 -1.78125 C 6.765625 -1.175781 6.359375 -0.707031 5.828125 -0.375 C 5.296875 -0.0507812 4.679688 0.109375 3.984375 0.109375 C 3.304688 0.109375 2.703125 -0.0507812 2.171875 -0.375 C 1.640625 -0.707031 1.222656 -1.175781 0.921875 -1.78125 C 0.628906 -2.382812 0.484375 -3.082031 0.484375 -3.875 L 0.484375 -4.28125 C 0.484375 -5.082031 0.628906 -5.789062 0.921875 -6.40625 C 1.210938 -7.019531 1.625 -7.492188 2.15625 -7.828125 C 2.6875 -8.160156 3.289062 -8.328125 3.96875 -8.328125 C 4.65625 -8.328125 5.265625 -8.160156 5.796875 -7.828125 C 6.335938 -7.492188 6.75 -7.019531 7.03125 -6.40625 C 7.320312 -5.789062 7.46875 -5.082031 7.46875 -4.28125 Z M 5.765625 -4.296875 C 5.765625 -5.148438 5.609375 -5.800781 5.296875 -6.25 C 4.992188 -6.695312 4.554688 -6.921875 3.984375 -6.921875 C 3.410156 -6.921875 2.96875 -6.695312 2.65625 -6.25 C 2.351562 -5.8125 2.203125 -5.164062 2.203125 -4.3125 L 2.203125 -3.921875 C 2.203125 -3.078125 2.351562 -2.425781 2.65625 -1.96875 C 2.96875 -1.507812 3.410156 -1.28125 3.984375 -1.28125 C 4.554688 -1.28125 4.992188 -1.5 5.296875 -1.9375 C 5.597656 -2.382812 5.753906 -3.035156 5.765625 -3.890625 Z M 5.765625 -4.296875 "/></g></g></g><g fill="#222222" fill-opacity="1"><g transform="translate(209.21451, 152.464752)"><g><path d="M 7.40625 0 L 5.71875 0 L 2.421875 -5.40625 L 2.421875 0 L 0.734375 0 L 0.734375 -8.203125 L 2.421875 -8.203125 L 5.71875 -2.796875 L 5.71875 -8.203125 L 7.40625 -8.203125 Z M 7.40625 0 "/></g></g></g><g fill="#222222" fill-opacity="1"><g transform="translate(218.54525, 152.464752)"><g><path d="M 7.40625 0 L 5.71875 0 L 2.421875 -5.40625 L 2.421875 0 L 0.734375 0 L 0.734375 -8.203125 L 2.421875 -8.203125 L 5.71875 -2.796875 L 5.71875 -8.203125 L 7.40625 -8.203125 Z M 7.40625 0 "/></g></g></g><g fill="#222222" fill-opacity="1"><g transform="translate(227.875989, 152.464752)"><g><path d="M 5.671875 -3.5625 L 2.421875 -3.5625 L 2.421875 -1.359375 L 6.234375 -1.359375 L 6.234375 0 L 0.734375 0 L 0.734375 -8.203125 L 6.21875 -8.203125 L 6.21875 -6.84375 L 2.421875 -6.84375 L 2.421875 -4.875 L 5.671875 -4.875 Z M 5.671875 -3.5625 "/></g></g></g><g fill="#222222" fill-opacity="1"><g transform="translate(235.549078, 152.464752)"><g><path d="M 7.171875 -2.734375 C 7.109375 -1.847656 6.78125 -1.148438 6.1875 -0.640625 C 5.601562 -0.140625 4.832031 0.109375 3.875 0.109375 C 2.820312 0.109375 1.992188 -0.242188 1.390625 -0.953125 C 0.785156 -1.660156 0.484375 -2.632812 0.484375 -3.875 L 0.484375 -4.375 C 0.484375 -5.15625 0.617188 -5.847656 0.890625 -6.453125 C 1.171875 -7.054688 1.570312 -7.519531 2.09375 -7.84375 C 2.613281 -8.164062 3.210938 -8.328125 3.890625 -8.328125 C 4.835938 -8.328125 5.597656 -8.070312 6.171875 -7.5625 C 6.753906 -7.050781 7.09375 -6.335938 7.1875 -5.421875 L 5.5 -5.421875 C 5.457031 -5.953125 5.304688 -6.335938 5.046875 -6.578125 C 4.796875 -6.816406 4.410156 -6.9375 3.890625 -6.9375 C 3.328125 -6.9375 2.90625 -6.734375 2.625 -6.328125 C 2.34375 -5.921875 2.203125 -5.296875 2.203125 -4.453125 L 2.203125 -3.828125 C 2.203125 -2.941406 2.332031 -2.289062 2.59375 -1.875 C 2.863281 -1.46875 3.289062 -1.265625 3.875 -1.265625 C 4.394531 -1.265625 4.78125 -1.382812 5.03125 -1.625 C 5.289062 -1.863281 5.441406 -2.234375 5.484375 -2.734375 Z M 7.171875 -2.734375 "/></g></g></g><g fill="#222222" fill-opacity="1"><g transform="translate(244.282161, 152.464752)"><g><path d="M 6.90625 -6.84375 L 4.390625 -6.84375 L 4.390625 0 L 2.703125 0 L 2.703125 -6.84375 L 0.21875 -6.84375 L 0.21875 -8.203125 L 6.90625 -8.203125 Z M 6.90625 -6.84375 "/></g></g></g><g fill="#222222" fill-opacity="1"><g transform="translate(328.955897, 50.321016)"><g><path d="M 4.984375 -2.15625 C 4.984375 -2.476562 4.867188 -2.722656 4.640625 -2.890625 C 4.421875 -3.054688 4.015625 -3.234375 3.421875 -3.421875 C 2.835938 -3.617188 2.378906 -3.804688 2.046875 -3.984375 C 1.109375 -4.492188 0.640625 -5.175781 0.640625 -6.03125 C 0.640625 -6.46875 0.765625 -6.859375 1.015625 -7.203125 C 1.265625 -7.554688 1.625 -7.832031 2.09375 -8.03125 C 2.5625 -8.226562 3.085938 -8.328125 3.671875 -8.328125 C 4.253906 -8.328125 4.773438 -8.21875 5.234375 -8 C 5.691406 -7.789062 6.046875 -7.488281 6.296875 -7.09375 C 6.554688 -6.707031 6.6875 -6.269531 6.6875 -5.78125 L 5 -5.78125 C 5 -6.15625 4.878906 -6.445312 4.640625 -6.65625 C 4.398438 -6.863281 4.066406 -6.96875 3.640625 -6.96875 C 3.222656 -6.96875 2.898438 -6.878906 2.671875 -6.703125 C 2.441406 -6.535156 2.328125 -6.304688 2.328125 -6.015625 C 2.328125 -5.753906 2.460938 -5.53125 2.734375 -5.34375 C 3.003906 -5.164062 3.398438 -5 3.921875 -4.84375 C 4.890625 -4.550781 5.59375 -4.191406 6.03125 -3.765625 C 6.46875 -3.335938 6.6875 -2.804688 6.6875 -2.171875 C 6.6875 -1.453125 6.414062 -0.890625 5.875 -0.484375 C 5.34375 -0.0859375 4.617188 0.109375 3.703125 0.109375 C 3.078125 0.109375 2.503906 -0.00390625 1.984375 -0.234375 C 1.460938 -0.460938 1.066406 -0.773438 0.796875 -1.171875 C 0.523438 -1.578125 0.390625 -2.046875 0.390625 -2.578125 L 2.09375 -2.578125 C 2.09375 -1.671875 2.628906 -1.21875 3.703125 -1.21875 C 4.109375 -1.21875 4.421875 -1.300781 4.640625 -1.46875 C 4.867188 -1.632812 4.984375 -1.863281 4.984375 -2.15625 Z M 4.984375 -2.15625 "/></g></g></g><g fill="#222222" fill-opacity="1"><g transform="translate(337.232281, 50.321016)"><g><path d="M 7.46875 -3.921875 C 7.46875 -3.109375 7.328125 -2.394531 7.046875 -1.78125 C 6.765625 -1.175781 6.359375 -0.707031 5.828125 -0.375 C 5.296875 -0.0507812 4.679688 0.109375 3.984375 0.109375 C 3.304688 0.109375 2.703125 -0.0507812 2.171875 -0.375 C 1.640625 -0.707031 1.222656 -1.175781 0.921875 -1.78125 C 0.628906 -2.382812 0.484375 -3.082031 0.484375 -3.875 L 0.484375 -4.28125 C 0.484375 -5.082031 0.628906 -5.789062 0.921875 -6.40625 C 1.210938 -7.019531 1.625 -7.492188 2.15625 -7.828125 C 2.6875 -8.160156 3.289062 -8.328125 3.96875 -8.328125 C 4.65625 -8.328125 5.265625 -8.160156 5.796875 -7.828125 C 6.335938 -7.492188 6.75 -7.019531 7.03125 -6.40625 C 7.320312 -5.789062 7.46875 -5.082031 7.46875 -4.28125 Z M 5.765625 -4.296875 C 5.765625 -5.148438 5.609375 -5.800781 5.296875 -6.25 C 4.992188 -6.695312 4.554688 -6.921875 3.984375 -6.921875 C 3.410156 -6.921875 2.96875 -6.695312 2.65625 -6.25 C 2.351562 -5.8125 2.203125 -5.164062 2.203125 -4.3125 L 2.203125 -3.921875 C 2.203125 -3.078125 2.351562 -2.425781 2.65625 -1.96875 C 2.96875 -1.507812 3.410156 -1.28125 3.984375 -1.28125 C 4.554688 -1.28125 4.992188 -1.5 5.296875 -1.9375 C 5.597656 -2.382812 5.753906 -3.035156 5.765625 -3.890625 Z M 5.765625 -4.296875 "/></g></g></g><g fill="#222222" fill-opacity="1"><g transform="translate(346.382596, 50.321016)"><g><path d="M 7.171875 -2.734375 C 7.109375 -1.847656 6.78125 -1.148438 6.1875 -0.640625 C 5.601562 -0.140625 4.832031 0.109375 3.875 0.109375 C 2.820312 0.109375 1.992188 -0.242188 1.390625 -0.953125 C 0.785156 -1.660156 0.484375 -2.632812 0.484375 -3.875 L 0.484375 -4.375 C 0.484375 -5.15625 0.617188 -5.847656 0.890625 -6.453125 C 1.171875 -7.054688 1.570312 -7.519531 2.09375 -7.84375 C 2.613281 -8.164062 3.210938 -8.328125 3.890625 -8.328125 C 4.835938 -8.328125 5.597656 -8.070312 6.171875 -7.5625 C 6.753906 -7.050781 7.09375 -6.335938 7.1875 -5.421875 L 5.5 -5.421875 C 5.457031 -5.953125 5.304688 -6.335938 5.046875 -6.578125 C 4.796875 -6.816406 4.410156 -6.9375 3.890625 -6.9375 C 3.328125 -6.9375 2.90625 -6.734375 2.625 -6.328125 C 2.34375 -5.921875 2.203125 -5.296875 2.203125 -4.453125 L 2.203125 -3.828125 C 2.203125 -2.941406 2.332031 -2.289062 2.59375 -1.875 C 2.863281 -1.46875 3.289062 -1.265625 3.875 -1.265625 C 4.394531 -1.265625 4.78125 -1.382812 5.03125 -1.625 C 5.289062 -1.863281 5.441406 -2.234375 5.484375 -2.734375 Z M 7.171875 -2.734375 "/></g></g></g><g fill="#222222" fill-opacity="1"><g transform="translate(355.11568, 50.321016)"><g><path d="M 2.53125 0 L 0.84375 0 L 0.84375 -8.203125 L 2.53125 -8.203125 Z M 2.53125 0 "/></g></g></g><g fill="#222222" fill-opacity="1"><g transform="translate(359.659533, 50.321016)"><g><path d="M 5.375 -1.6875 L 2.40625 -1.6875 L 1.84375 0 L 0.046875 0 L 3.09375 -8.203125 L 4.65625 -8.203125 L 7.734375 0 L 5.9375 0 Z M 2.859375 -3.0625 L 4.90625 -3.0625 L 3.875 -6.140625 Z M 2.859375 -3.0625 "/></g></g></g><g fill="#222222" fill-opacity="1"><g transform="translate(368.60687, 50.321016)"><g><path d="M 2.421875 -1.359375 L 6.015625 -1.359375 L 6.015625 0 L 0.734375 0 L 0.734375 -8.203125 L 2.421875 -8.203125 Z M 2.421875 -1.359375 "/></g></g></g></svg>