<svg width="18" height="18" viewBox="0 0 18 18" fill="none" xmlns="http://www.w3.org/2000/svg">
<path d="M7.71429 0C6.3 0 5.14286 1.0125 5.14286 2.25H2.57143C1.15714 2.25 0 3.2625 0 4.5H18C18 3.2625 16.8429 2.25 15.4286 2.25H12.8571C12.8571 1.0125 11.7 0 10.2857 0H7.71429ZM2.57143 6.75V17.5725C2.57143 17.82 2.77714 18 3.06 18H14.9657C15.2486 18 15.4543 17.82 15.4543 17.5725V6.75H12.8829V14.625C12.8829 15.255 12.3171 15.75 11.5971 15.75C10.8771 15.75 10.3114 15.255 10.3114 14.625V6.75H7.74V14.625C7.74 15.255 7.17429 15.75 6.45429 15.75C5.73429 15.75 5.16857 15.255 5.16857 14.625V6.75H2.59714H2.57143Z" fill="#0E9C9C"/>
</svg>
